<svg width="12" height="20" viewBox="0 0 12 20" fill="none" xmlns="http://www.w3.org/2000/svg">
<path d="M5.92739 19.9996C6.22433 19.9996 6.46516 19.7603 6.46516 19.4658V1.75043L11.082 6.33359C11.1869 6.43768 11.3245 6.48982 11.4622 6.48982C11.5999 6.48982 11.7376 6.43768 11.8424 6.33359C12.0525 6.12504 12.0525 5.78706 11.8424 5.57832L6.38022 0.156415C6.17051 -0.0521383 5.82948 -0.0521383 5.61978 0.156415L0.157564 5.5788C-0.0525213 5.78735 -0.0525213 6.12533 0.157564 6.33407C0.367275 6.54262 0.7083 6.54262 0.918001 6.33407L5.38963 1.89525V19.4662C5.38963 19.7609 5.63047 20 5.92739 20V19.9996Z" fill="#33054F"/>
</svg>
