<svg width="10" height="16" viewBox="0 0 10 16" fill="none" xmlns="http://www.w3.org/2000/svg">
<path d="M9.7503 8.01694C9.74741 8.37518 9.60523 8.71841 9.35376 8.97374L2.73404 15.5935C2.47565 15.853 2.12492 15.9992 1.75877 16C1.39263 16.0008 1.04114 15.8561 0.781769 15.5979C0.522225 15.3395 0.376 14.9888 0.375232 14.6226C0.374463 14.2565 0.519146 13.905 0.777345 13.6456L6.42282 8.00013L0.777345 2.35465V2.35446C0.429489 2.00506 0.294425 1.49636 0.423141 1.02037C0.551855 0.544183 0.924742 0.172859 1.40127 0.0462763C1.87804 -0.0803209 2.38596 0.0570505 2.73403 0.406637L9.35375 7.02636C9.61368 7.29013 9.75663 7.6474 9.75029 8.01759L9.7503 8.01694Z" fill="black"/>
</svg>
