<svg width="18" height="18" viewBox="0 0 18 18" fill="none" xmlns="http://www.w3.org/2000/svg">
<g clip-path="url(#clip0_283_230)">
<path d="M17.982 5.29205C17.9398 4.33564 17.7852 3.67812 17.5636 3.10837C17.3351 2.50359 16.9834 1.96213 16.5227 1.51201C16.0726 1.05489 15.5276 0.699691 14.9298 0.474702C14.3568 0.253147 13.7027 0.0984842 12.7463 0.0563159C11.7827 0.0105764 11.4768 0 9.033 0C6.58917 0 6.28327 0.0105764 5.32329 0.0527447C4.36689 0.094913 3.70936 0.249713 3.13975 0.471131C2.53483 0.699691 1.99338 1.05132 1.54326 1.51201C1.08614 1.96213 0.731078 2.50716 0.505952 3.10493C0.284397 3.67812 0.129734 4.33207 0.0875659 5.28848C0.0418264 6.25203 0.03125 6.55792 0.03125 9.00176C0.03125 11.4456 0.0418264 11.7515 0.0839946 12.7115C0.126163 13.6679 0.280963 14.3254 0.502518 14.8952C0.731078 15.4999 1.08614 16.0414 1.54326 16.4915C1.99338 16.9486 2.53841 17.3038 3.13618 17.5288C3.70936 17.7504 4.36331 17.905 5.31986 17.9472C6.2797 17.9895 6.58573 17.9999 9.02957 17.9999C11.4734 17.9999 11.7793 17.9895 12.7393 17.9472C13.6957 17.905 14.3532 17.7504 14.9228 17.5288C16.1325 17.0611 17.0889 16.1047 17.5566 14.8952C17.778 14.322 17.9328 13.6679 17.975 12.7115C18.0172 11.7515 18.0277 11.4456 18.0277 9.00176C18.0277 6.55792 18.0242 6.25203 17.982 5.29205ZM16.3611 12.6411C16.3223 13.5202 16.1747 13.9949 16.0516 14.3114C15.7491 15.0956 15.1268 15.7179 14.3426 16.0204C14.0262 16.1434 13.548 16.2911 12.6724 16.3297C11.723 16.372 11.4382 16.3824 9.03657 16.3824C6.63491 16.3824 6.3466 16.372 5.40063 16.3297C4.52155 16.2911 4.04685 16.1434 3.73038 16.0204C3.34015 15.8762 2.98495 15.6476 2.69664 15.3487C2.39775 15.0568 2.16919 14.7052 2.02497 14.315C1.9019 13.9985 1.75424 13.5202 1.71564 12.6447C1.67334 11.6953 1.6629 11.4104 1.6629 9.00876C1.6629 6.6071 1.67334 6.31879 1.71564 5.37295C1.75424 4.49387 1.9019 4.01917 2.02497 3.7027C2.16919 3.31234 2.39775 2.95727 2.70021 2.66883C2.99195 2.36994 3.34359 2.14138 3.73395 1.99729C4.05042 1.87422 4.52869 1.72656 5.4042 1.68783C6.3536 1.64566 6.63848 1.63509 9.04001 1.63509C11.4452 1.63509 11.73 1.64566 12.676 1.68783C13.555 1.72656 14.0297 1.87422 14.3462 1.99729C14.7364 2.14138 15.0916 2.36994 15.3799 2.66883C15.6788 2.96071 15.9074 3.31234 16.0516 3.7027C16.1747 4.01917 16.3223 4.49731 16.3611 5.37295C16.4032 6.32236 16.4138 6.6071 16.4138 9.00876C16.4138 11.4104 16.4032 11.6917 16.3611 12.6411Z" fill="white"/>
<path d="M9.03411 4.37695C6.48135 4.37695 4.41016 6.44801 4.41016 9.0009C4.41016 11.5538 6.48135 13.6249 9.03411 13.6249C11.587 13.6249 13.6581 11.5538 13.6581 9.0009C13.6581 6.44801 11.587 4.37695 9.03411 4.37695ZM9.03411 12.0003C7.37801 12.0003 6.03466 10.6571 6.03466 9.0009C6.03466 7.34467 7.37801 6.00146 9.03411 6.00146C10.6903 6.00146 12.0335 7.34467 12.0335 9.0009C12.0335 10.6571 10.6903 12.0003 9.03411 12.0003V12.0003Z" fill="white"/>
<path d="M14.9208 4.19472C14.9208 4.79084 14.4375 5.2742 13.8412 5.2742C13.2451 5.2742 12.7617 4.79084 12.7617 4.19472C12.7617 3.59845 13.2451 3.11523 13.8412 3.11523C14.4375 3.11523 14.9208 3.59845 14.9208 4.19472V4.19472Z" fill="white"/>
</g>
<defs>
<clipPath id="clip0_283_230">
<rect width="18" height="18" fill="white"/>
</clipPath>
</defs>
</svg>
