<svg width="271" height="380" viewBox="0 0 271 380" fill="none" xmlns="http://www.w3.org/2000/svg">
<path d="M51.8717 1.38317C49.1601 0.619364 46.3427 2.19839 45.5789 4.91004C44.8151 7.62169 46.3941 10.4391 49.1057 11.2029C51.8174 11.9667 54.6348 10.3877 55.3986 7.67603C56.1624 4.96438 54.5834 2.14698 51.8717 1.38317Z" fill="white" fill-opacity="0.3"/>
<path d="M239.21 204.934C240.481 200.422 245.168 197.796 249.679 199.066C254.191 200.337 256.818 205.024 255.547 209.536C254.276 214.048 249.589 216.674 245.078 215.403C240.566 214.132 237.939 209.446 239.21 204.934Z" fill="#4AD688"/>
<path d="M216.954 253.949L199.402 265.922" stroke="#4AD688" stroke-miterlimit="10"/>
<path d="M213.881 249.423L186.288 268.227" stroke="#4AD688" stroke-miterlimit="10"/>
<path d="M221.568 237.549L193.239 256.878" stroke="#4AD688" stroke-miterlimit="10"/>
<path d="M246.811 177.97L213.426 200.729" stroke="#4AD688" stroke-miterlimit="10"/>
<path d="M240.955 169.383L188.509 205.122" stroke="#4AD688" stroke-miterlimit="10"/>
<path d="M255.594 146.799L201.721 183.537" stroke="white" stroke-miterlimit="10"/>
<path d="M181.676 229.372C178.965 228.608 176.147 230.187 175.384 232.898C174.62 235.61 176.199 238.427 178.91 239.191C181.622 239.955 184.439 238.376 185.203 235.664C185.967 232.953 184.388 230.135 181.676 229.372Z" fill="white" fill-opacity="0.3"/>
<path d="M206.094 130.278C206.859 127.565 209.674 125.987 212.387 126.751C215.1 127.516 216.678 130.331 215.914 133.044C215.15 135.757 212.334 137.335 209.621 136.571C206.908 135.807 205.33 132.991 206.094 130.278Z" fill="white" fill-opacity="0.3"/>
<path d="M164.743 375.646C165.096 374.392 166.4 373.661 167.653 374.014C168.906 374.367 169.637 375.671 169.284 376.925C168.931 378.178 167.627 378.909 166.374 378.556C165.125 378.188 164.39 376.899 164.743 375.646Z" fill="white" fill-opacity="0.3"/>
<path d="M137.384 54.1581C138.148 51.4451 140.963 49.867 143.676 50.6312C146.389 51.3953 147.967 54.2111 147.203 56.9241C146.439 59.637 143.623 61.2152 140.91 60.451C138.197 59.6868 136.619 56.8711 137.384 54.1581Z" fill="white" fill-opacity="0.3"/>
<path d="M265.36 322.555C262.648 321.791 259.831 323.37 259.067 326.082C258.303 328.794 259.882 331.611 262.594 332.375C265.306 333.139 268.123 331.56 268.887 328.848C269.651 326.136 268.072 323.319 265.36 322.555Z" fill="white" fill-opacity="0.3"/>
<path d="M188.55 63.1564L176.538 53.8211L164.495 73.1863L188.55 63.1564Z" fill="#4AD688"/>
<path d="M220.598 91.192L217.502 59.9237L164.73 85.0674L220.598 91.192Z" fill="#4AD688"/>
<path d="M3.64205 26.3148L25.1286 18.7922L6.68674 1.55049L3.64205 26.3148Z" fill="#4AD688"/>
</svg>
