<svg width="384" height="388" viewBox="0 0 384 388" fill="none" xmlns="http://www.w3.org/2000/svg">
<path d="M90.679 285.119C86.5135 284.866 82.5973 287.301 81.9319 290.556C81.2665 293.811 84.1037 296.654 88.2692 296.907C92.4347 297.159 96.351 294.724 97.0164 291.469C97.6819 288.214 94.8445 285.371 90.679 285.119Z" fill="#4AD688"/>
<path d="M91.5378 280.918C84.4041 280.486 77.6973 284.655 76.5577 290.229C75.4181 295.804 80.2772 300.674 87.4109 301.106C94.5446 301.537 101.251 297.369 102.391 291.794C103.531 286.219 98.6715 281.35 91.5378 280.918Z" stroke="#4AD688" stroke-miterlimit="10"/>
<path d="M312.732 10.4733C313.538 6.53224 318.287 3.58029 323.33 3.88569C328.374 4.19109 331.814 7.63898 331.009 11.58C330.203 15.5211 325.454 18.473 320.411 18.1676C315.368 17.8622 311.924 14.4261 312.732 10.4733Z" stroke="#4AD688" stroke-miterlimit="10"/>
<path d="M59.543 256.982C49.5991 256.38 40.2501 262.191 38.6615 269.962C37.0729 277.732 43.8464 284.52 53.7903 285.122C63.7343 285.724 73.0832 279.913 74.6718 272.142C76.2603 264.371 69.487 257.584 59.543 256.982Z" fill="#4AD688"/>
<path d="M140.256 310.509L124.271 322.201" stroke="#4AD688" stroke-miterlimit="10"/>
<path d="M136.679 307.565L111.574 325.923" stroke="#4AD688" stroke-miterlimit="10"/>
<path d="M142.929 297.425L117.138 316.301" stroke="#4AD688" stroke-miterlimit="10"/>
<path d="M146.32 92.629L125.922 107.568" stroke="#4AD688" stroke-miterlimit="10"/>
<path d="M141.768 88.8639L109.706 112.326" stroke="#4AD688" stroke-miterlimit="10"/>
<path d="M149.734 75.9252L116.795 100.025" stroke="#4AD688" stroke-miterlimit="10"/>
<path opacity="0.5" d="M117.1 373.199L140.793 356.899" stroke="#4AD688" stroke-miterlimit="10"/>
<path opacity="0.5" d="M112.162 368.8L149.372 343.196" stroke="#4AD688" stroke-miterlimit="10"/>
<path opacity="0.5" d="M92.6627 374.412L130.899 348.108" stroke="#4AD688" stroke-miterlimit="10"/>
<path d="M108.272 210.244C106.992 210.166 105.788 210.914 105.584 211.915C105.379 212.915 106.251 213.789 107.532 213.867C108.812 213.944 110.016 213.196 110.22 212.196C110.425 211.195 109.553 210.321 108.272 210.244Z" fill="white" fill-opacity="0.3"/>
<path d="M118.25 47.5992C118.455 46.5992 119.659 45.8503 120.939 45.9278C122.219 46.0053 123.091 46.88 122.887 47.88C122.683 48.8799 121.478 49.6287 120.198 49.5513C118.921 49.462 118.046 48.5992 118.25 47.5992Z" fill="white" fill-opacity="0.3"/>
<path d="M153.321 33.5517C153.764 31.3871 156.365 29.77 159.135 29.9377C161.905 30.1055 163.79 31.9942 163.347 34.1589C162.905 36.3235 160.303 37.9406 157.533 37.7728C154.763 37.6051 152.878 35.7164 153.321 33.5517Z" fill="white" fill-opacity="0.3"/>
<path d="M43.8493 144.031C44.2918 141.867 46.8932 140.249 49.6633 140.417C52.4333 140.585 54.3181 142.474 53.8756 144.638C53.4331 146.803 50.8316 148.42 48.0616 148.252C45.2891 148.096 43.4068 146.196 43.8493 144.031Z" fill="white" fill-opacity="0.3"/>
<path d="M38.8135 221.675L49.6892 198.371L94.1469 224.538L38.8135 221.675Z" fill="#4AD688"/>
<path d="M94.7684 184.835L114.283 192.484L115.542 173.052L94.7684 184.835Z" fill="#4AD688"/>
</svg>
