<svg width="10" height="16" viewBox="0 0 10 16" fill="none" xmlns="http://www.w3.org/2000/svg">
<path d="M0.000193019 7.98306C0.003079 7.62482 0.14526 7.28159 0.396726 7.02626L7.01644 0.40654C7.27484 0.146997 7.62557 0.000771221 7.99172 2.86102e-06C8.35785 -0.000766681 8.70935 0.143917 8.96872 0.402116C9.22826 0.660507 9.37449 1.01124 9.37526 1.37739C9.37602 1.74355 9.23134 2.09502 8.97314 2.35439L3.32767 7.99987L8.97314 13.6453C9.321 13.9947 9.45606 14.5036 9.32735 14.9796C9.19863 15.4558 8.82575 15.8271 8.34922 15.9537C7.87245 16.0803 7.36453 15.9429 7.01646 15.5934L0.396736 8.97364C0.136809 8.70987 -0.0061558 8.35326 0.000193019 7.98306Z" fill="black"/>
</svg>
