<svg width="19" height="16" viewBox="0 0 19 16" fill="none" xmlns="http://www.w3.org/2000/svg">
<path d="M17.7854 0.129004L0.883344 6.66564C-0.257287 7.08066 -0.257287 7.80696 0.675956 8.01447L4.9274 9.3633L6.58649 14.3436C6.79388 14.8624 6.69019 15.0699 7.20866 15.0699C7.62343 15.0699 7.83082 14.8624 8.03821 14.6549C8.1419 14.5511 9.07514 13.6173 10.1121 12.5797L14.4672 15.7962C15.2968 16.2112 15.8152 16.0037 16.0226 15.0699L18.926 1.47783C19.2371 0.336516 18.5113 -0.28602 17.7854 0.129004ZM15.6078 3.24169L7.51974 10.6084L7.20866 14.0323L5.54956 9.05203L15.0894 3.03418C15.5042 2.72291 15.9189 2.93042 15.6078 3.24169Z" fill="white"/>
</svg>
