<svg width="21" height="15" viewBox="0 0 21 15" fill="none" xmlns="http://www.w3.org/2000/svg">
<path fill-rule="evenodd" clip-rule="evenodd" d="M2.78549 14.5787C4.3134 14.9886 9.66523 15 10.2705 15C10.8758 15 16.2276 14.9881 17.755 14.5782C18.3219 14.4259 18.8388 14.1272 19.2539 13.7122C19.669 13.2972 19.9678 12.7803 20.1203 12.2135C20.5364 10.6592 20.541 7.62767 20.541 7.49948C20.541 7.3713 20.5369 4.34028 20.1208 2.78601H20.1203V2.78549C19.9678 2.21887 19.6691 1.70225 19.2542 1.28733C18.8393 0.872411 18.3226 0.573757 17.756 0.421261C16.2276 0.0113718 10.8758 0 10.2705 0C9.66523 0 4.3134 0.0118884 2.78601 0.421778C2.2193 0.574382 1.7026 0.873127 1.28761 1.28812C0.87261 1.70312 0.573866 2.21982 0.421261 2.78653C0.004652 4.3408 0 7.37233 0 7.50052C0 7.62871 0.00413512 10.6602 0.421261 12.2145C0.573423 12.7813 0.871965 13.2981 1.28693 13.7131C1.7019 14.128 2.21871 14.4266 2.78549 14.5787ZM8.29593 10.4378C8.39286 10.5348 8.52433 10.5892 8.66142 10.5892C8.75207 10.5891 8.84113 10.5654 8.91986 10.5205L13.3749 7.94795C13.4535 7.90258 13.5187 7.83733 13.5641 7.75876C13.6094 7.68018 13.6333 7.59105 13.6333 7.50033C13.6333 7.4096 13.6094 7.32047 13.5641 7.24189C13.5187 7.16332 13.4535 7.09807 13.3749 7.0527L8.91986 4.48017C8.84134 4.43447 8.75214 4.41032 8.66128 4.41016C8.57043 4.41 8.48115 4.43384 8.40246 4.47926C8.32378 4.52469 8.25849 4.59009 8.2132 4.66885C8.16791 4.74761 8.14422 4.83694 8.14453 4.92779V10.0723C8.14453 10.2094 8.19899 10.3409 8.29593 10.4378Z" fill="white"/>
</svg>
