<?xml version="1.0" encoding="utf-8"?><svg viewBox="0 0 384 388" xmlns="http://www.w3.org/2000/svg" xmlns:xlink="http://www.w3.org/1999/xlink"><style>:root>svg{display:none}:root>svg:target{display:block}</style><svg viewBox="0 0 12 20" id="arrow" xmlns="http://www.w3.org/2000/svg"><path d="M5.927 20c.297 0 .538-.24.538-.534V1.75l4.617 4.584a.538.538 0 00.76 0 .531.531 0 000-.756L6.38.156a.54.54 0 00-.76 0L.158 5.58a.531.531 0 000 .755.54.54 0 00.76 0L5.39 1.895v17.571c0 .295.24.534.537.534z"/></svg><svg viewBox="0 0 18 18" id="instagram" xmlns="http://www.w3.org/2000/svg"><g clip-path="url(#bclip0_283_230)"><path d="M17.982 5.292c-.042-.956-.197-1.614-.418-2.184a4.392 4.392 0 00-1.041-1.596A4.43 4.43 0 0014.93.475c-.573-.222-1.227-.377-2.184-.419C11.783.011 11.476 0 9.033 0c-2.444 0-2.75.01-3.71.053C4.367.095 3.71.25 3.14.47a4.392 4.392 0 00-1.597 1.041c-.457.45-.812.995-1.037 1.593C.284 3.678.13 4.332.088 5.288.042 6.252.03 6.558.03 9.002s.01 2.75.053 3.71c.042.956.197 1.613.419 2.183a4.439 4.439 0 001.04 1.596c.45.458.995.813 1.593 1.038.573.221 1.227.376 2.184.418.96.043 1.266.053 3.71.053 2.443 0 2.75-.01 3.71-.053.956-.042 1.613-.197 2.183-.418a4.604 4.604 0 002.634-2.634c.221-.573.376-1.227.418-2.184.042-.96.053-1.265.053-3.71 0-2.443-.004-2.749-.046-3.709zm-1.62 7.35c-.04.878-.187 1.353-.31 1.67a2.986 2.986 0 01-1.71 1.708c-.316.123-.794.271-1.67.31-.949.042-1.234.052-3.635.052-2.402 0-2.69-.01-3.636-.052-.88-.039-1.354-.187-1.67-.31a2.77 2.77 0 01-1.034-.671 2.799 2.799 0 01-.672-1.034c-.123-.316-.27-.795-.31-1.67-.042-.95-.052-1.235-.052-3.636 0-2.402.01-2.69.053-3.636.038-.88.186-1.354.309-1.67.144-.39.373-.746.675-1.034a2.794 2.794 0 011.034-.672c.316-.123.795-.27 1.67-.31.95-.041 1.234-.052 3.636-.052 2.405 0 2.69.01 3.636.053.879.039 1.354.186 1.67.31.39.143.746.372 1.034.67.299.293.527.644.672 1.035.123.316.27.794.31 1.67.041.95.052 1.234.052 3.636 0 2.401-.01 2.683-.053 3.632z"/><path d="M9.034 4.377a4.625 4.625 0 000 9.248 4.625 4.625 0 000-9.248zm0 7.623a3 3 0 11.001-6 3 3 0 010 6zM14.92 4.195a1.08 1.08 0 11-2.158 0 1.08 1.08 0 012.159 0z"/></g><defs><clipPath id="bclip0_283_230"><path d="M0 0h18v18H0z"/></clipPath></defs></svg><svg viewBox="0 0 10 16" id="next" xmlns="http://www.w3.org/2000/svg"><path d="M9.75 8.017a1.38 1.38 0 01-.396.957l-6.62 6.62a1.38 1.38 0 01-1.957-1.948L6.423 8 .777 2.355A1.38 1.38 0 012.734.406l6.62 6.62c.26.263.403.62.396.99z"/></svg><svg viewBox="0 0 384 388" id="pattern1" xmlns="http://www.w3.org/2000/svg"><path d="M90.679 285.119c-4.166-.253-8.082 2.182-8.747 5.437-.666 3.255 2.172 6.098 6.337 6.351 4.166.252 8.082-2.183 8.747-5.438.666-3.255-2.172-6.098-6.337-6.35z"/><path d="M91.538 280.918c-7.134-.432-13.84 3.737-14.98 9.311-1.14 5.575 3.72 10.445 10.853 10.877 7.134.431 13.84-3.737 14.98-9.312 1.14-5.575-3.72-10.444-10.853-10.876zM312.732 10.473c.806-3.94 5.555-6.893 10.598-6.587 5.044.305 8.484 3.753 7.679 7.694-.806 3.941-5.555 6.893-10.598 6.588-5.043-.306-8.487-3.742-7.679-7.695z" stroke-miterlimit="10"/><path d="M59.543 256.982c-9.944-.602-19.293 5.209-20.882 12.98-1.588 7.77 5.185 14.558 15.13 15.16 9.943.602 19.292-5.209 20.88-12.98 1.59-7.771-5.184-14.558-15.128-15.16z"/><path d="M140.256 310.509l-15.985 11.692M136.679 307.565l-25.105 18.358M142.929 297.425l-25.791 18.876M146.32 92.629l-20.398 14.939M141.768 88.864l-32.062 23.462M149.734 75.925l-32.939 24.1" stroke-miterlimit="10"/><path opacity=".5" d="M117.1 373.199l23.693-16.3M112.162 368.8l37.21-25.604M92.663 374.412l38.236-26.304" stroke-miterlimit="10"/><path d="M108.272 210.244c-1.28-.078-2.484.67-2.688 1.671-.205 1 .667 1.874 1.948 1.952 1.28.077 2.484-.671 2.688-1.671.205-1.001-.667-1.875-1.948-1.952zM118.25 47.6c.205-1 1.409-1.75 2.689-1.672 1.28.077 2.152.952 1.948 1.952-.204 1-1.409 1.749-2.689 1.671-1.277-.089-2.152-.952-1.948-1.952zM153.321 33.552c.443-2.165 3.044-3.782 5.814-3.614 2.77.168 4.655 2.056 4.212 4.22-.442 2.166-3.044 3.783-5.814 3.615-2.77-.168-4.655-2.057-4.212-4.221zM43.85 144.031c.442-2.164 3.043-3.782 5.813-3.614 2.77.168 4.655 2.057 4.213 4.221-.443 2.165-3.044 3.782-5.814 3.614-2.773-.156-4.655-2.056-4.213-4.221z" fill-opacity=".3"/><path d="M38.813 221.675l10.876-23.304 44.458 26.167-55.334-2.863zM94.768 184.835l19.515 7.649 1.259-19.432-20.774 11.783z"/></svg><svg viewBox="0 0 271 380" id="pattern2" xmlns="http://www.w3.org/2000/svg"><path d="M51.872 1.383a5.1 5.1 0 10-2.766 9.82 5.1 5.1 0 002.766-9.82z" fill-opacity=".3"/><path d="M239.21 204.934a8.487 8.487 0 1116.337 4.602 8.487 8.487 0 01-16.337-4.602z"/><path d="M216.954 253.949l-17.552 11.973M213.881 249.423l-27.593 18.804M221.568 237.549l-28.329 19.329M246.811 177.97l-33.385 22.759M240.955 169.383l-52.446 35.739" stroke-miterlimit="10"/><path d="M255.594 146.799l-53.873 36.738" stroke-miterlimit="10"/><path d="M181.676 229.372a5.1 5.1 0 10-2.766 9.819 5.1 5.1 0 102.766-9.819zM206.094 130.278a5.1 5.1 0 016.293-3.527 5.1 5.1 0 013.527 6.293 5.1 5.1 0 01-6.293 3.527 5.1 5.1 0 01-3.527-6.293zM164.743 375.646a2.36 2.36 0 111.631 2.91c-1.249-.368-1.984-1.657-1.631-2.91zM137.384 54.158a5.098 5.098 0 016.292-3.527 5.1 5.1 0 013.527 6.293 5.1 5.1 0 01-6.293 3.527 5.098 5.098 0 01-3.526-6.293zM265.36 322.555a5.1 5.1 0 10-2.767 9.819 5.1 5.1 0 002.767-9.819z" fill-opacity=".3"/><path d="M188.55 63.156l-12.012-9.335-12.043 19.365 24.055-10.03zM220.598 91.192l-3.096-31.268-52.772 25.143 55.868 6.125zM3.642 26.315l21.487-7.523L6.687 1.55 3.642 26.315z"/></svg><svg viewBox="0 0 10 16" id="prev" xmlns="http://www.w3.org/2000/svg"><path d="M0 7.983a1.38 1.38 0 01.397-.957l6.62-6.62a1.38 1.38 0 111.956 1.948L3.328 8l5.645 5.645a1.38 1.38 0 01-1.957 1.948l-6.62-6.62A1.377 1.377 0 010 7.984z"/></svg><svg viewBox="0 0 19 16" id="telegram" xmlns="http://www.w3.org/2000/svg"><path d="M17.785.129L.883 6.666c-1.14.415-1.14 1.141-.207 1.348l4.251 1.35 1.66 4.98c.207.518.103.726.622.726.414 0 .622-.208.83-.415l2.073-2.075 4.355 3.216c.83.415 1.348.208 1.556-.726l2.903-13.592c.311-1.141-.415-1.764-1.14-1.349zm-2.177 3.113L7.52 10.608l-.311 3.424-1.66-4.98 9.54-6.018c.415-.311.83-.104.519.208z"/></svg><svg viewBox="0 0 23 40" id="work__pattern" xmlns="http://www.w3.org/2000/svg"><path d="M.358 0H23v40L.358 10V0z"/></svg><svg viewBox="0 0 21 15" id="youtube" xmlns="http://www.w3.org/2000/svg"><path fill-rule="evenodd" clip-rule="evenodd" d="M2.785 14.579c1.528.41 6.88.421 7.486.421.605 0 5.957-.012 7.484-.422a3.35 3.35 0 002.365-2.364c.416-1.555.421-4.586.421-4.715 0-.128-.004-3.159-.42-4.713A3.35 3.35 0 0017.755.42C16.228.011 10.876 0 10.27 0c-.605 0-5.957.012-7.484.422A3.351 3.351 0 00.421 2.787C.005 4.34 0 7.372 0 7.5c0 .128.004 3.16.421 4.713a3.347 3.347 0 002.364 2.365zm5.51-4.141a.517.517 0 00.625.082l4.455-2.572a.517.517 0 000-.895L8.92 4.48a.516.516 0 00-.775.448v5.144c0 .137.054.269.15.366z"/></svg></svg>